<svg width="320" height="320" viewBox="0 0 320 320" fill="none" xmlns="http://www.w3.org/2000/svg">
<circle cx="128" cy="230" r="5" fill="#D9D9D9"/>
<circle cx="128" cy="245" r="5" fill="#D9D9D9"/>
<circle cx="128" cy="215" r="5" fill="#D9D9D9"/>
<circle cx="128" cy="200" r="5" fill="#D9D9D9"/>
<circle cx="138" cy="190" r="5" fill="#D9D9D9"/>
<circle cx="138" cy="175" r="5" fill="#D9D9D9"/>
<circle cx="138" cy="160" r="5" fill="#D9D9D9"/>
<circle cx="108" cy="115" r="5" fill="#D9D9D9"/>
<circle cx="108" cy="100" r="5" fill="#D9D9D9"/>
<circle cx="108" cy="115" r="5" fill="#D9D9D9"/>
<circle cx="108" cy="100" r="5" fill="#D9D9D9"/>
<circle cx="198" cy="205" r="5" fill="#D9D9D9"/>
<circle cx="198" cy="190" r="5" fill="#D9D9D9"/>
<circle cx="228" cy="135" r="5" fill="#D9D9D9"/>
<circle cx="228" cy="120" r="5" fill="#D9D9D9"/>
<circle cx="253" cy="235" r="5" fill="#D9D9D9"/>
<circle cx="253" cy="220" r="5" fill="#D9D9D9"/>
<circle cx="83" cy="200" r="5" fill="#D9D9D9"/>
<circle cx="83" cy="185" r="5" fill="#D9D9D9"/>
<circle cx="83" cy="170" r="5" fill="#D9D9D9"/>
<circle cx="108" cy="160" r="5" fill="#D9D9D9"/>
<circle cx="108" cy="145" r="5" fill="#D9D9D9"/>
<circle cx="108" cy="130" r="5" fill="#D9D9D9"/>
<circle cx="238" cy="190" r="5" fill="#D9D9D9"/>
<circle cx="238" cy="175" r="5" fill="#D9D9D9"/>
<circle cx="238" cy="160" r="5" fill="#D9D9D9"/>
</svg>
