<svg width="320" height="320" viewBox="0 0 320 320" fill="none" xmlns="http://www.w3.org/2000/svg">
<circle cx="170" cy="220" r="5" fill="#D9D9D9"/>
<circle cx="170" cy="235" r="5" fill="#D9D9D9"/>
<circle cx="170" cy="205" r="5" fill="#D9D9D9"/>
<circle cx="170" cy="190" r="5" fill="#D9D9D9"/>
<circle cx="118" cy="225" r="5" fill="#D9D9D9"/>
<circle cx="118" cy="240" r="5" fill="#D9D9D9"/>
<circle cx="118" cy="210" r="5" fill="#D9D9D9"/>
<circle cx="118" cy="195" r="5" fill="#D9D9D9"/>
<circle cx="85" cy="200" r="5" fill="#D9D9D9"/>
<circle cx="85" cy="185" r="5" fill="#D9D9D9"/>
<circle cx="85" cy="170" r="5" fill="#D9D9D9"/>
<circle cx="108" cy="148" r="5" fill="#D9D9D9"/>
<circle cx="108" cy="133" r="5" fill="#D9D9D9"/>
<circle cx="108" cy="118" r="5" fill="#D9D9D9"/>
<circle cx="228" cy="135" r="5" fill="#D9D9D9"/>
<circle cx="228" cy="120" r="5" fill="#D9D9D9"/>
<circle cx="228" cy="105" r="5" fill="#D9D9D9"/>
<circle cx="238" cy="190" r="5" fill="#D9D9D9"/>
<circle cx="238" cy="175" r="5" fill="#D9D9D9"/>
<circle cx="238" cy="160" r="5" fill="#D9D9D9"/>
<circle cx="253" cy="245" r="5" fill="#D9D9D9"/>
<circle cx="223" cy="215" r="5" fill="#D9D9D9"/>
<circle cx="123" cy="169" r="5" fill="#D9D9D9"/>
<circle cx="118" cy="255" r="5" fill="#D9D9D9"/>
<circle cx="253" cy="230" r="5" fill="#D9D9D9"/>
</svg>
