<svg width="8072" height="3999" viewBox="0 0 8072 3999" fill="none" xmlns="http://www.w3.org/2000/svg">
<path d="M1042.84 1506.04L693.349 1310L644.193 1310L256.385 1506.04H0V2476H2049L1924.82 1483.38L1506.85 1371.74L1042.84 1506.04Z" fill="#50AA59"/>
<path d="M2668.2 1482H2454L2464.32 2476H3285L3210.16 1590.72L2668.2 1482Z" fill="#50AA59"/>
<path d="M3501.06 1482L3211 1590.72L3286.11 2476H4120.04L4335 1963.47L4044.94 1590.72L3501.06 1482Z" fill="#495380"/>
<path d="M3394.82 199.398L3105 434.765L3198.16 1071.03L3759.68 1257.26L4251.33 1404.69L4649.83 1803L5703 434.765L5195.82 8H4062.43L3394.82 199.398Z" fill="#495380"/>
<path d="M2453.63 1482H1925L2049.38 2476H2464L2453.63 1482Z" fill="#1E7EB4"/>
<rect x="356.66" y="1275.59" width="200" height="160" transform="rotate(-26.5074 356.66 1275.59)" fill="#495380"/>
<rect x="6029" y="2387.26" width="200" height="160" transform="rotate(-26.5074 6029 2387.26)" fill="#495380"/>
<path d="M5165.72 2045.25L4885.98 2077.45L4342.73 1968.81L4053 2077.45L4128.02 2962.08H4961L6774.4 3037.09L7879 3094L7472.86 1855L6534.89 1901.47C6510.97 2265.52 6208.08 2553.39 5837.95 2553.39C5518.16 2553.39 5248.57 2338.5 5165.72 2045.25Z" fill="#63403D"/>
</svg>
