<svg width="28709" height="6806" viewBox="0 0 28709 6806" fill="none" xmlns="http://www.w3.org/2000/svg">
<rect x="3015.06" y="2877.05" width="185" height="150" transform="rotate(31.3118 3015.06 2877.05)" fill="#CCCFAA"/>
<path d="M2045.08 716.708L1817.79 674L1285.5 768L675 1355.74L0 4886H4660L4971.5 3884.14V3301.84L4748 2879.5L4438.5 2841L4130 2916.5L3470.36 3188.06L3105.67 3107.74L2944.69 3008.3L2778.92 2790.61L2641.84 2388.07L2466.51 1781.87L2414.55 1355.74L2224.88 858.857L2045.08 716.708Z" fill="#50AA59"/>
<rect x="2428.71" y="947.334" width="200" height="160" transform="rotate(69.0938 2428.71 947.334)" fill="#495380"/>
<path d="M5432 3471.5L4965.5 3292V3877.5L4602 4430L3827.5 4609V4847L4738.5 5530.5L5918.5 5644L6533 5441.5L6347.5 3606H5970.5L5432 3471.5Z" fill="#63403D"/>
<rect x="6729.57" y="3479.7" width="200" height="160" transform="rotate(5.17547 6729.57 3479.7)" fill="#495380"/>
<rect x="7558.84" y="3465.77" width="200" height="160" transform="rotate(-55.5634 7558.84 3465.77)" fill="#495380"/>
<rect x="8822.61" y="3088.89" width="200" height="160" transform="rotate(-54.1374 8822.61 3088.89)" fill="#495380"/>
<rect x="8587.5" y="3208" width="80" height="200" fill="#495380"/>
<rect x="10582.5" y="3564" width="185" height="150" transform="rotate(24.8154 10582.5 3564)" fill="#CCCFAA"/>
<path d="M12422.5 4038H14158.8L14063.3 4314.26L13412.3 4498.26L12961.8 4529.26L12486.3 4183.76L12422.5 4038Z" fill="#1E7EB4"/>
<rect x="12591.5" y="3958" width="200" height="160" fill="#495380"/>
<rect x="12977.5" y="3958" width="200" height="160" fill="#495380"/>
<rect x="13537.5" y="3958" width="200" height="160" fill="#495380"/>
<path d="M7861.5 3310L8205 3216.5L8499 3407.5H8790L9075 3012L9380 2821L9853.5 2979L10159.5 3407.5L10390.5 3504L10502 3691.5L10719.5 3791L11040.5 3892L11361 3927L11490.8 3988L11513.5 4049L11528.5 4163L11641 4249H11826.5L11949.5 4073.5L11960.5 4000.25L12068 3927H12232V4843.25L12650.5 5836L11544 5642L10390.5 5730.5V5726L9237 5637.5L6531 5440L6348 3606L7103.5 3676.5L7654 3606L7861.5 3310Z" fill="#50AA59"/>
<path d="M11954.8 4038H11509.4L11513.5 4049L11528.5 4163L11641 4249H11826.5L11949.5 4073.5L11954.8 4038Z" fill="#1E7EB4"/>
<rect x="15177.1" y="3785.18" width="185" height="150" transform="rotate(4.28853 15177.1 3785.18)" fill="#938260"/>
<path d="M16415.4 4272.73L16551.2 4070.94L17140.3 4180.33L17558.5 4407L17502 4334.17L17321.7 4218.79L16986.7 4083.42L16574.5 4010L16574.1 4013.25V4010H15720.5L15867.4 4340.16L16047 4401.6L16415.4 4272.73Z" fill="#1E7EB4"/>
<rect x="16124.5" y="3930" width="200" height="160" fill="#495380"/>
<path d="M19997.5 2254.5L19355 1958.5L19038.5 2027.5L19602 2575.5L20522.5 2724L21375 2575.5L21548.5 1591H21089.5L20803.5 2121.5L19997.5 2254.5Z" fill="#50AA59"/>
<rect x="17837.5" y="4367" width="200" height="160" fill="#495380"/>
<rect x="20002.8" y="4722" width="200" height="160" transform="rotate(70.9922 20002.8 4722)" fill="#495380"/>
<rect x="20262" y="4974" width="200" height="160" transform="rotate(9.53737 20262 4974)" fill="#495380"/>
<rect x="20683" y="5058" width="200" height="160" transform="rotate(9.53737 20683 5058)" fill="#495380"/>
<rect x="21310.9" y="5055.71" width="200" height="160" transform="rotate(-1.83916 21310.9 5055.71)" fill="#495380"/>
<path fill-rule="evenodd" clip-rule="evenodd" d="M19997.5 2254.5L19355 1958.5L19040.8 2027H19038.5V4064L19815.5 4713L20297 5068.5L20764 5125H21575.5H21958V5212.5L21575.5 5372L20297 5139.5L19929.5 4951.5L19850 4782L19349 4478L18844.5 4209V2121.5L18965 1903H20921.3L20803.5 2121.5L19997.5 2254.5Z" fill="#1E7EB4"/>
<circle cx="27999.5" cy="3429" r="50" fill="#FF0000"/>
<path fill-rule="evenodd" clip-rule="evenodd" d="M12232 3925.5L12397 3999.5L12424.4 4042.38L12486.3 4183.76L12961.8 4529.26L13412.3 4498.26L14063.3 4314.26L14175.5 3993L14475 3955L14799 4053L15148 3933.9V3933L15150.2 3933.17L15156.5 3931V3933.66L15418.5 3954L15686 3933L15867.5 4340L16047.1 4401.5L16415.3 4272.5L16551.1 4070.5L17140 4180L17779.3 4527H18158L18720.5 4146.5L19357 4468.5L19859.5 4788L19913.5 4946.5L20301 5141L21572.9 5371.62L21923.5 5223.5L22837 5141L23224.5 4946.5L23342 4785L23781 4468.5L24417.5 4146.5L24980 4527H25358.7L25998 4180L26586.9 4070.5L26722.7 4272.5L27090.9 4401.5L27270.5 4340L27452 3933L27719.5 3954L27990 3933V5848L25998 6806H21575H21572H17140L15148 5848V5842.72L14063.3 5870.5L12650.5 5836L12232 4843.25V3925.5Z" fill="#63403D"/>
<rect x="21936.5" y="5072.14" width="185" height="150" transform="rotate(-4.69303 21936.5 5072.14)" fill="#938260"/>
</svg>
