<svg width="5451" height="6806" viewBox="0 0 5451 6806" fill="none" xmlns="http://www.w3.org/2000/svg">
<g clip-path="url(#clip0_239_19)">
<path d="M492.5 3447.5L26 3268V3853.5L-337.5 4406L-1112 4585V4823L-201 5506.5L979 5620L1593.5 5417.5L1408 3582H1031L492.5 3447.5Z" fill="#63403D"/>
<path d="M3271.5 3120L2922 3286L2714.5 3582L2164 3652.5L1408.5 3582L1591.5 5416L4297.5 5613.5L5451 5702V3480L5220 3383.5L4914 2955L4440.5 2797L4135.5 2988L3850.5 3383.5H3559.5L3271.5 3120Z" fill="#50AA59"/>
<circle cx="22" cy="3271" r="50" fill="#00FF00"/>
<rect x="1790.07" y="3455.7" width="200" height="160" transform="rotate(5.17547 1790.07 3455.7)" fill="#495380"/>
<rect x="2619.34" y="3441.77" width="200" height="160" transform="rotate(-55.5634 2619.34 3441.77)" fill="#495380"/>
<rect x="3883.11" y="3064.89" width="200" height="160" transform="rotate(-54.1374 3883.11 3064.89)" fill="#495380"/>
<circle cx="5451" cy="3403" r="50" fill="#FF0000"/>
<rect x="3648" y="3184" width="80" height="200" fill="#495380"/>
</g>
<defs>
<clipPath id="clip0_239_19">
<rect width="5451" height="6806" fill="white"/>
</clipPath>
</defs>
</svg>
