<svg width="5451" height="6806" viewBox="0 0 5451 6806" fill="none" xmlns="http://www.w3.org/2000/svg">
<g clip-path="url(#clip0_239_33)">
<circle cy="3403" r="50" fill="#00FF00"/>
<path fill-rule="evenodd" clip-rule="evenodd" d="M1199 3899C1224.99 4032.46 1300.62 4129 1389.86 4129C1479.1 4129 1554.73 4032.46 1580.72 3899H1199Z" fill="#1E7EB4"/>
<rect x="191.954" y="3540" width="185" height="150" transform="rotate(24.8154 191.954 3540)" fill="#CCCFAA"/>
<path d="M2032 4014H3768.3L3672.8 4290.26L3021.8 4474.26L2571.3 4505.26L2095.8 4159.76L2032 4014Z" fill="#1E7EB4"/>
<rect x="2201" y="3854" width="200" height="160" fill="#495380"/>
<rect x="2587" y="3854" width="200" height="160" fill="#495380"/>
<rect x="3147" y="3854" width="200" height="160" fill="#495380"/>
<path d="M1582.27 3878.61C1559.47 4020.48 1481.36 4125 1388.5 4125C1277.77 4125 1188 3976.36 1188 3793C1188 3773.55 888 3886 888 3886L650 3868L329 3767L111.5 3667.5L0 3480V5706.5L1153.5 5618L1841.5 5796V3842.5L1582.27 3878.61Z" fill="#50AA59"/>
<path d="M1841.5 3842.5L2006.5 3975.5L2033.92 4018.38L2095.8 4159.76L2571.3 4505.26L3021.8 4474.26L3672.8 4290.26L3748.89 4070.14L3766 4069.5L3936.5 3881.5V5814.5L1841.5 5796V3842.5Z" fill="#63403D"/>
</g>
<defs>
<clipPath id="clip0_239_33">
<rect width="5451" height="6806" fill="white"/>
</clipPath>
</defs>
</svg>
