<svg width="6434" height="6806" viewBox="0 0 6434 6806" fill="none" xmlns="http://www.w3.org/2000/svg">
<g clip-path="url(#clip0_244_76)">
<circle cy="3403" r="50" fill="#00FF00"/>
<rect x="35.5752" y="3759.18" width="185" height="150" transform="rotate(4.28853 35.5752 3759.18)" fill="#CCCFAA"/>
<path d="M1409.57 4044.5L1273.83 4246.5L905.604 4375.5L726.014 4314L544.5 3907L277 3928L6.5 3907V5822L1998.46 6780H6433.5V5346L5159.5 5115L4772 4920.5L4718 4762L4215.5 4442.5L3579 4120.5L3016.48 4501H2637.81L1998.46 4154L1409.57 4044.5Z" fill="#63403D"/>
<path d="M1273.88 4246.73L1409.67 4044.94L1998.77 4154.33L2417 4381L2360.51 4308.17L2180.16 4192.79L1845.23 4057.42L1432.98 3984L1432.65 3987.25V3984H579L725.863 4314.16L905.518 4375.6L1273.88 4246.73Z" fill="#1E7EB4"/>
<rect x="983" y="3904" width="200" height="160" fill="#495380"/>
<path d="M4856 2228.5L4213.5 1932.5L3897 2001.5L4460.5 2549.5L5381 2698L6233.5 2549.5L6407 1565H5948L5662 2095.5L4856 2228.5Z" fill="#50AA59"/>
<path d="M4213.5 1932.5L4856 2228.5L5662 2095.5L5779.8 1877H3823.5L3703 2095.5V4183L4207.5 4452L4708.5 4756L4788 4925.5L5155.5 5113.5L6434 5346V5099H5622.5L5155.5 5042.5L4674 4687L3897 4038V2001H3899.29L4213.5 1932.5Z" fill="#1E7EB4"/>
<rect x="2696" y="4341" width="200" height="160" fill="#495380"/>
<rect x="4861.28" y="4696" width="200" height="160" transform="rotate(70.9922 4861.28 4696)" fill="#495380"/>
<rect x="5120.51" y="4948" width="200" height="160" transform="rotate(9.53737 5120.51 4948)" fill="#495380"/>
<rect x="5541.51" y="5032" width="200" height="160" transform="rotate(9.53737 5541.51 5032)" fill="#495380"/>
<rect x="6169.36" y="5029.71" width="200" height="160" transform="rotate(-1.83916 6169.36 5029.71)" fill="#495380"/>
<circle cx="6434" cy="4615" r="50" fill="#FF0000"/>
</g>
<defs>
<clipPath id="clip0_244_76">
<rect width="6434" height="6806" fill="white"/>
</clipPath>
</defs>
</svg>
