<svg width="6434" height="6806" viewBox="0 0 6434 6806" fill="none" xmlns="http://www.w3.org/2000/svg">
<g clip-path="url(#clip0_244_113)">
<path d="M382.5 5191.5L0 5351V5104H382.5V5191.5Z" fill="#1E7EB4"/>
<circle cy="4615" r="50" fill="#00FF00"/>
<circle cx="6434" cy="3403" r="50" fill="#FF0000"/>
<path d="M5021.43 4044.5L5157.17 4246.5L5525.4 4375.5L5704.99 4314L5886.5 3907L6154 3928L6424.5 3907V5822L4432.54 6780H6.5V5346L358 5197.5L1271.5 5115L1659 4920.5L1776.5 4759L2215.5 4442.5L2852 4120.5L3414.52 4501H3793.19L4432.54 4154L5021.43 4044.5Z" fill="#63403D"/>
<rect x="371" y="5046.14" width="185" height="150" transform="rotate(-4.69303 371 5046.14)" fill="#938260"/>
</g>
<defs>
<clipPath id="clip0_244_113">
<rect width="6434" height="6806" fill="white"/>
</clipPath>
</defs>
</svg>
